<?xml version="1.0" encoding="utf-8"?>
<!-- Generator: Adobe Illustrator 23.0.1, SVG Export Plug-In . SVG Version: 6.00 Build 0)  -->
<svg version="1.1" id="Layer_8" xmlns="http://www.w3.org/2000/svg" xmlns:xlink="http://www.w3.org/1999/xlink" x="0px" y="0px"
	 viewBox="0 0 512 512" style="enable-background:new 0 0 512 512;" xml:space="preserve">
<style type="text/css">
	.st0{fill:#009FB7;}
	.st1{fill:#696773;}
	.st2{fill:#FED766;}
	.st3{fill:#EFF1F3;}
</style>
<circle class="st0" cx="256" cy="256" r="256"/>
<circle class="st1" cx="256" cy="256" r="192"/>
<path class="st2" d="M106,375.8c70.2,3.9,141.7-21,195.3-74.6s78.5-125.1,74.6-195.3c-75.4-60.4-185.7-55.6-255.6,14.3
	S45.6,300.4,106,375.8z"/>
<path class="st3" d="M20.3,356c27.4,11.6,56.4,18.2,85.7,19.9c-60.4-75.4-55.6-185.7,14.3-255.6S300.4,45.6,375.8,106
	c-1.6-29.3-8.2-58.3-19.9-85.7C262.8-19.2,150.9-1,75,75S-19.2,262.8,20.3,356z"/>
</svg>
